<?xml version="1.0" ?><!-- Uploaded to: SVG Repo, www.svgrepo.com, Generator: SVG Repo Mixer Tools -->
<svg width="800px" height="800px" viewBox="0 0 32 32" id="object" xmlns="http://www.w3.org/2000/svg"><defs><style>.cls-1{fill:#f4dab7;}.cls-2{fill:#6d6daa;}.cls-3{fill:#d6b5b0;}.cls-4{fill:#91e085;}</style></defs><title/><path class="cls-1" d="M27.91,26H4.09a1,1,0,0,1-.93-.55l-1.05-2A1,1,0,0,1,3.05,22H29a1,1,0,0,1,.94,1.45l-1.05,2A1,1,0,0,1,27.91,26Z"/><path class="cls-2" d="M27.91,27H4.09a2,2,0,0,1-1.82-1.09l-1-2A1.93,1.93,0,0,1,1.29,22a2,2,0,0,1,1.76-1H29a2,2,0,0,1,1.76,1,1.93,1.93,0,0,1,.06,1.93l-1,2A2,2,0,0,1,27.91,27ZM29,23,3.05,23l1,2,23.87,0A.06.06,0,0,0,28,25Z"/><path class="cls-3" d="M7,6H25a1,1,0,0,1,1,1V22a0,0,0,0,1,0,0H6a0,0,0,0,1,0,0V7A1,1,0,0,1,7,6Z"/><path class="cls-2" d="M26,23H6a1,1,0,0,1-1-1V7A2,2,0,0,1,7,5H25a2,2,0,0,1,2,2V22A1,1,0,0,1,26,23ZM7,21H25V7H7Z"/><path class="cls-2" d="M28,20H26a1,1,0,0,1-1-1V9a1,1,0,0,1,1-1h2a3,3,0,0,1,3,3v6A3,3,0,0,1,28,20Zm-1-2h1a1,1,0,0,0,1-1V11a1,1,0,0,0-1-1H27Z"/><polygon class="cls-4" points="19 18 13 18 13 11 16 10 19 11 19 18"/><path class="cls-2" d="M19,19H13a1,1,0,0,1-1-1V11a1,1,0,0,1,.68-.95l3-1a1,1,0,0,1,.64,0l3,1A1,1,0,0,1,20,11v7A1,1,0,0,1,19,19Zm-5-2h4V11.72l-2-.67-2,.67Z"/><path class="cls-2" d="M16,11a1,1,0,0,1-1-1V6a1,1,0,0,1,2,0v4A1,1,0,0,1,16,11Z"/></svg>