<?xml version="1.0" encoding="iso-8859-1"?>
<!-- Uploaded to: SVG Repo, www.svgrepo.com, Generator: SVG Repo Mixer Tools -->
<svg version="1.1" id="Layer_1" xmlns="http://www.w3.org/2000/svg" xmlns:xlink="http://www.w3.org/1999/xlink" 
	 viewBox="0 0 509.287 509.287" xml:space="preserve">
<circle style="fill:#F1F3F7;" cx="254.644" cy="254.644" r="254.644"/>
<path style="fill:#6EB1E1;" d="M387.899,37.637v360.773c0,33.568-27.465,61.033-61.033,61.033s-61.033-27.465-61.033-61.033v-281.77
	c-0.339-49.166-40.011-88.837-89.176-88.837S87.82,67.815,87.82,116.641v42.723h21.701v-42.723
	c0-36.959,30.177-67.136,67.136-67.136s67.136,30.177,67.136,67.136V398.75c0,45.775,37.298,83.073,83.073,83.073
	s83.073-37.298,83.073-83.073V52.895C402.819,47.47,395.359,42.384,387.899,37.637z"/>
<path style="fill:#646B79;" d="M453.001,392.646H56.286c-12.207,0-22.04-9.833-22.04-22.04V169.875
	c0-12.207,9.833-22.04,22.04-22.04h396.715c12.207,0,22.04,9.833,22.04,22.04v200.392
	C475.041,382.813,465.208,392.646,453.001,392.646z"/>
<g>
	<rect x="65.441" y="187.507" style="fill:#BDBDBE;" width="43.74" height="43.74"/>
	<rect x="131.899" y="187.507" style="fill:#BDBDBE;" width="43.74" height="43.74"/>
	<rect x="198.697" y="187.507" style="fill:#BDBDBE;" width="43.74" height="43.74"/>
	<rect x="265.494" y="187.507" style="fill:#BDBDBE;" width="43.74" height="43.74"/>
	<rect x="332.291" y="187.507" style="fill:#BDBDBE;" width="43.74" height="43.74"/>
	<rect x="398.75" y="187.507" style="fill:#BDBDBE;" width="43.74" height="43.74"/>
	<rect x="65.441" y="317.711" style="fill:#BDBDBE;" width="43.74" height="43.74"/>
	<rect x="131.899" y="317.711" style="fill:#BDBDBE;" width="243.793" height="43.74"/>
	<rect x="398.75" y="317.711" style="fill:#BDBDBE;" width="43.74" height="43.74"/>
	<rect x="98.67" y="252.27" style="fill:#BDBDBE;" width="43.74" height="43.74"/>
	<rect x="165.468" y="252.27" style="fill:#BDBDBE;" width="43.74" height="43.74"/>
	<rect x="231.926" y="252.27" style="fill:#BDBDBE;" width="43.74" height="43.74"/>
	<rect x="298.723" y="252.27" style="fill:#BDBDBE;" width="43.74" height="43.74"/>
	<rect x="365.521" y="252.27" style="fill:#BDBDBE;" width="43.74" height="43.74"/>
</g>
</svg>