<?xml version="1.0" encoding="iso-8859-1"?>
<!-- Uploaded to: SVG Repo, www.svgrepo.com, Generator: SVG Repo Mixer Tools -->
<!DOCTYPE svg PUBLIC "-//W3C//DTD SVG 1.1//EN" "http://www.w3.org/Graphics/SVG/1.1/DTD/svg11.dtd">
<svg version="1.1" id="Capa_1" xmlns="http://www.w3.org/2000/svg" xmlns:xlink="http://www.w3.org/1999/xlink" 
	 viewBox="0 0 460 460" xml:space="preserve">
<g id="XMLID_1536_">
	<g id="XMLID_1437_">
		<polyline id="XMLID_2549_" style="fill:#BDC3C7;" points="70,325 70,116 390,116 390,325 		"/>
	</g>
	<g id="XMLID_2702_">
		<polyline id="XMLID_2704_" style="fill:#ECF0F1;" points="70,311.906 70,116 374.395,116 374.395,311.906 		"/>
	</g>
	<g id="XMLID_1436_">
		<path id="XMLID_2548_" style="fill:#3C5768;" d="M26.5,375h407c14.636,0,26.5-11.864,26.5-26.5V325H0v23.5
			C0,363.136,11.864,375,26.5,375z"/>
	</g>
	<g id="XMLID_1435_">
		<path id="XMLID_2547_" style="fill:#8FA6B4;" d="M394,85H66c-14.359,0-26,11.641-26,26v214h30V116h320v209h30V111
			C420,96.641,408.359,85,394,85z"/>
	</g>
	<g id="XMLID_1438_">
		<rect id="XMLID_2546_" x="211.417" y="140.372" style="fill:#86C867;" width="37.166" height="37.166"/>
	</g>
	<g id="XMLID_1440_">
		<rect id="XMLID_2545_" x="211.417" y="200.767" style="fill:#86C867;" width="37.166" height="37.166"/>
	</g>
	<g id="XMLID_1441_">
		<rect id="XMLID_2544_" x="211.417" y="261.161" style="fill:#86C867;" width="37.166" height="37.166"/>
	</g>
	<g id="XMLID_348_">
		<rect id="XMLID_2543_" x="273.193" y="140.372" style="fill:#86C867;" width="37.166" height="37.166"/>
	</g>
	<g id="XMLID_235_">
		<rect id="XMLID_2542_" x="273.193" y="200.767" style="fill:#86C867;" width="37.166" height="37.166"/>
	</g>
	<g id="XMLID_233_">
		<rect id="XMLID_2541_" x="273.193" y="261.161" style="fill:#86C867;" width="37.166" height="37.166"/>
	</g>
	<g id="XMLID_447_">
		<rect id="XMLID_2540_" x="149.641" y="140.372" style="fill:#86C867;" width="37.166" height="37.166"/>
	</g>
	<g id="XMLID_446_">
		<rect id="XMLID_2539_" x="149.641" y="200.767" style="fill:#86C867;" width="37.166" height="37.166"/>
	</g>
	<g id="XMLID_445_">
		<rect id="XMLID_2538_" x="149.641" y="261.161" style="fill:#86C867;" width="37.166" height="37.166"/>
	</g>
</g>
</svg>