<?xml version="1.0" encoding="iso-8859-1"?>
<!-- Uploaded to: SVG Repo, www.svgrepo.com, Generator: SVG Repo Mixer Tools -->
<svg height="800px" width="800px" version="1.1" id="Layer_1" xmlns="http://www.w3.org/2000/svg" xmlns:xlink="http://www.w3.org/1999/xlink" 
	 viewBox="0 0 453.35 453.35" xml:space="preserve">
<g>
	<path style="fill:#E6E6E6;" d="M403.2,166.545v200.02H50.16v-200.02h196.11v45.72v1.13c0,12.64,10.25,22.89,22.89,22.89h86.22
		c12.64,0,22.89-10.25,22.89-22.89v-1.13v-45.72H403.2z M205.65,284.655l34.44-33.57l-47.59-6.91l-21.29-43.13l-21.28,43.13
		l-47.59,6.91l34.44,33.57l-8.13,47.4l42.56-22.38l42.57,22.38L205.65,284.655z"/>
	<path style="fill:#88C5FC;" d="M426.2,161.825v227.74H27.16v-227.74c0-10.1,8.18-18.28,18.28-18.28h200.83v23H50.16v200.02H403.2
		v-200.02h-24.93v-23h29.65C418.01,143.545,426.2,151.725,426.2,161.825z"/>
	<path style="fill:#70B1E0;" d="M426.2,389.565h27.15c0,20.71-16.79,37.5-37.5,37.5H37.5c-10.36,0-19.73-4.2-26.52-10.98
		C4.2,409.295,0,399.925,0,389.565h27.16H426.2z"/>
	<g>
		<path style="opacity:0.23;fill:#F2F2F2;enable-background:new    ;" d="M426.2,161.825v227.74H238.38l11.97-23l104.09-200.02
			l11.97-23h41.51C418.02,143.545,426.2,151.725,426.2,161.825z"/>
		<path style="opacity:0.23;fill:#F2F2F2;enable-background:new    ;" d="M126.68,143.545l-99.52,192.72v-174.44
			c0-10.1,8.19-18.28,18.28-18.28L126.68,143.545L126.68,143.545z"/>
	</g>
	<path style="fill:#F2F2F2;" d="M246.27,50.305v161.96h132V50.305H246.27z M340,173.955l-27.73-14.58l-11.78,6.19l-15.95,8.39
		l5.3-30.88l-22.44-21.87l31.01-4.5l13.86-28.1l13.76,27.88l0.11,0.22l31,4.5l-22.43,21.87L340,173.955z"/>
	<path style="fill:#666666;" d="M378.27,212.265v1.13c0,12.64-10.25,22.89-22.89,22.89h-86.22c-1.78,0-3.51-0.2-5.17-0.59
		c-10.15-2.34-17.72-11.44-17.72-22.3v-1.13H378.27z"/>
	<path style="fill:#666666;" d="M378.27,49.175v1.13h-132v-1.13c0-12.64,10.25-22.89,22.89-22.89h86.22
		c5.63,0,10.79,2.03,14.78,5.41C375.12,35.895,378.27,42.165,378.27,49.175z"/>
	<polygon style="fill:#F9DD53;" points="357.14,121.205 334.71,143.075 340,173.955 312.27,159.375 284.54,173.955 289.84,143.075 
		267.4,121.205 298.41,116.705 312.27,88.605 326.14,116.705 	"/>
	<g>
		<path style="opacity:0.23;fill:#F2F2F2;enable-background:new    ;" d="M378.27,49.175v164.22c0,12.64-10.25,22.89-22.89,22.89
			h-86.22c-1.78,0-3.51-0.2-5.17-0.59l12.2-23.43l24.3-46.7l25.54-49.08l34.44-66.18l7.49-14.39l2.2-4.22
			C375.12,35.895,378.27,42.165,378.27,49.175z"/>
	</g>
	<polygon style="fill:#F9DD53;" points="240.09,251.085 205.65,284.655 213.78,332.055 171.21,309.675 128.65,332.055 
		136.78,284.655 102.34,251.085 149.93,244.175 171.21,201.045 192.5,244.175 	"/>
	<g>
		<path style="opacity:0.23;fill:#F2F2F2;enable-background:new    ;" d="M453.35,389.565c0,11.27-4.98,21.39-12.85,28.26H318.92
			l14.7-28.26H453.35z"/>
	</g>
</g>
</svg>